<svg xmlns="http://www.w3.org/2000/svg" xmlns:xlink="http://www.w3.org/1999/xlink" viewBox="0 0 589.92 440.99"><defs><style>.cls-3{fill:#8fc7ff;stroke:#8fc7ff}.cls-13,.cls-3{stroke-linecap:round;stroke-linejoin:round;stroke-width:2px}.cls-4{fill:#202020}.cls-5{fill:#fff;stroke:#fff;stroke-miterlimit:10}.cls-13{fill:none;stroke:#000}</style><linearGradient id="linear-gradient" x1="308.32" y1="131.97" x2="141.03" y2="421.72" gradientUnits="userSpaceOnUse"><stop offset=".48" stop-color="#8fc7ff"/><stop offset=".94" stop-color="#8fabff"/></linearGradient><linearGradient id="linear-gradient-2" x1="136.49" y1="56.04" x2="259.06" y2="56.04" gradientUnits="userSpaceOnUse"><stop offset=".48" stop-color="#8fc7ff"/><stop offset="1" stop-color="#8fabff"/></linearGradient><linearGradient id="linear-gradient-3" x1="121.7" y1="229.41" x2="121.7" y2="318.89" gradientUnits="userSpaceOnUse"><stop offset=".64" stop-color="#364b60"/><stop offset="1" stop-color="#202020"/></linearGradient><linearGradient id="linear-gradient-4" x1="261.33" y1="232.68" x2="261.33" y2="330.66" xlink:href="#linear-gradient-3"/><linearGradient id="linear-gradient-5" x1="354.76" y1="295.87" x2="283.08" y2="254.49" gradientUnits="userSpaceOnUse"><stop offset=".58" stop-color="#8fc7ff"/><stop offset=".94" stop-color="#364b60"/></linearGradient><linearGradient id="linear-gradient-6" x1="459.96" y1="309.17" x2="459.96" y2="117.92" gradientUnits="userSpaceOnUse"><stop offset=".64" stop-color="#8fc7ff"/><stop offset="1" stop-color="#364b60"/></linearGradient><linearGradient id="linear-gradient-7" x1="311.42" y1="149.99" x2="386.46" y2="74.96" xlink:href="#linear-gradient-6"/></defs><g id="Layer_6" data-name="Layer 6"><path d="M450.65 319.21c234-62.93.8 111.24-145.73 115.18C163.86 438.18 34.21 402 34.21 294.7s-99.73-281 41.38-281S347 347.08 450.65 319.21z" fill="url(#linear-gradient)"/><path d="M212.82 39.17c10.41 25.76 71.7 65.12 34.26 58.29-35.55-6.46-38.91-19.54-48.81-33.56C177.94 35.11 103 14 153.87 13.84c38.79-.1 52.51 9.41 58.95 25.33z" fill="url(#linear-gradient-2)"/><path class="cls-3" d="M578 255.36c-21 2.14-33.18 18.57-50.29 18.57s-40.92 16.2-26 21.7c15.18 5.59 17.7 2.41 34.63 0 42.84-6.11 65.86-42.72 41.66-40.27z"/><path class="cls-4" d="M433.74 309.17l40.55-5.34c-4.68 9.19-13.51 15.38-23.64 15.38a22.91 22.91 0 0 1-3-.19 26.21 26.21 0 0 1-16.83-9.43z"/><path class="cls-4" d="M447.65 319a22.86 22.86 0 0 1-3 .19c-7.48 0-13.13-3.55-18.06-9l7.15-1M155.65 329a41.39 41.39 0 0 1-4.91.29c-11.72 0-22-4.86-25-11.43l11.48 1M299.19 259.85a32.16 32.16 0 0 0-15.32-1.41c-1 .15-2.46.52-3.42.76l-12 14.9-10.23 48.5 1.41 6.29.69 1.76c6.85 9.39 17 15.34 28.34 15.34a32.12 32.12 0 0 0 4.83-.36"/><path class="cls-4" d="M180.92 323.12c-4.67 3.75-12 6.16-20.33 6.16a41.22 41.22 0 0 1-4.9-.29c-9-1.06-16.24-5-19.21-10.12v-.05z"/><ellipse class="cls-4" cx="297.23" cy="302.86" rx="28.77" ry="43.12"/><ellipse class="cls-5" cx="299.99" cy="302.86" rx="23.38" ry="36.84"/><path d="M136.44 318.89l-10.3-1-8.24-.79a9 9 0 0 1-7.67-6.13l-.82-2.49a19.22 19.22 0 0 1-.94-5L107 276.62a36.86 36.86 0 0 1 2.55-15.62 83.49 83.49 0 0 1 6.14-12.39 76.73 76.73 0 0 1 8.19-11.14c2.94-3.31 6.16-6.33 9.17-8l.26-.14-2.78 15-1.35 7.27a123.26 123.26 0 0 0-1.07 37.4v.36l1.4 10.64 4.05 15.28 1.43 3.4 1.42.14z" fill="url(#linear-gradient-3)"/><path d="M248.1 240.48l-5.28 11.07-56.38 1.25-11.55.26-11.34-2.21-33-6.43 2.78-15 7.06 2.5 8.77 3.12a140.48 140.48 0 0 0 54.57 7.86l8.44-.46 1.05-.05z" fill="#fff"/><path d="M295.68 232.68L280.92 259l-5.46 9.76v.08a62.13 62.13 0 0 0-6.2 14.91l-1 3.84c-2.35 10.35-1.71 32.91-1.71 32.91v3.41a6.74 6.74 0 0 1-6.2 6.71 6.55 6.55 0 0 1-1.17 0l-25.71-2.46a39.62 39.62 0 0 1-6.47-21.68c0-1.07 0-2.13.13-3.2A124 124 0 0 1 239 259.41l7.24-14.79z" fill="url(#linear-gradient-4)"/><path d="M445.15 196.58a459.23 459.23 0 0 0-9.82 63.42c-.1 1.23-.2 2.46-.29 3.69q-1.29 17.16-1.3 34.42v11.1l-2.93.42-5.35.76-86.13 12.24-4.86-42.25a111.51 111.51 0 0 0-6.9-27.75l-9.87-25.23z" fill="#8fc7ff"/><path d="M334.47 280.34l4.86 42.25-16 2.27a61 61 0 0 0 3.58-8.95 63.13 63.13 0 0 0 2.14-9.41l1.32-9.06a62.8 62.8 0 0 0-.27-20.7c-2.56-13.57-9.23-23.5-18.84-25.8-9.16-2.19-19.16.11-27.45 7.49a43.24 43.24 0 0 0-8.39 10.35l5.46-9.76 14.76-26.34 22-5.31 9.87 25.23a111.51 111.51 0 0 1 6.96 27.74z" fill="url(#linear-gradient-5)"/><path d="M485.61 222.52l-2.42-8.75a18.05 18.05 0 0 0-8.45-10.84 7.24 7.24 0 0 1-3.49-5.13l-.17-1a32.32 32.32 0 0 1 .29-12.46 43.63 43.63 0 0 0-1.63-24.32l-3.23-8.86a53 53 0 0 0-37.09-33.27l15.79 37.93a52.84 52.84 0 0 1-.06 40.72 459.23 459.23 0 0 0-9.82 63.46c-.1 1.23-.2 2.46-.29 3.69q-1.29 17.16-1.3 34.42v11.1l40.55-5.34 9.18-1.21 2.45-9.2a135.25 135.25 0 0 0-.31-70.94zM477.86 290c-3.1 5-7.35 8.16-12.05 8.16-9.45 0-17.11-12.6-17.11-28.15a43.47 43.47 0 0 1 1.59-11.82c2.7-9.65 8.64-16.34 15.52-16.34 9.45 0 17.11 12.61 17.11 28.16 0 7.77-1.92 14.84-5.06 19.99z" fill="url(#linear-gradient-6)"/><path class="cls-4" d="M242.82 251.55l-3.5 7.15c-.12.24-.23.47-.34.71a124 124 0 0 0-11.87 43.87c-.09 1.07-.13 2.13-.13 3.2a39.62 39.62 0 0 0 6.47 21.69l-52.53-5.05-44.51-4.28-1.41-.14-1.43-3.4a59.36 59.36 0 0 1-3.32-10.9c-.3-1.45-.54-2.91-.73-4.38l-1.35-10.65v-.36a123.26 123.26 0 0 1 1.07-37.32l1.35-7.27 33 6.43 11.34 2.21 11.55-.26z"/><path class="cls-5" d="M482.92 270c0 7.82-1.94 14.89-5.06 20s-7.35 8.16-12.05 8.16c-9.45 0-17.11-12.6-17.11-28.15a43.47 43.47 0 0 1 1.59-11.82c2.7-9.65 8.64-16.34 15.52-16.34 9.45-.05 17.11 12.56 17.11 28.15z"/><path class="cls-4" d="M356.59 115.29l-40.93 70.86-3 .26-21.43 1.83-79 6.75a77.73 77.73 0 0 1-35.75-5.38l-13.18-5.33 43.7-44.21a119.36 119.36 0 0 1 61.42-33z"/><path d="M353.28 189.08a36.47 36.47 0 0 1-15.11-.22l-4.31-1a69.1 69.1 0 0 0-21.22-1.47l-21.43 1.83-79 6.75a77.73 77.73 0 0 1-35.75-5.38l-13.18-5.33-5.19 5.42a111 111 0 0 0-11.9 14.79l21.08 7.61a6.48 6.48 0 0 1 4.27 6.08v2.41a1.63 1.63 0 0 1-2.29 1.49l-26.64-11.91a111.88 111.88 0 0 0-6 11.7l-3.3 7.54 7.06 2.5 8.77 3.12a140.48 140.48 0 0 0 54.57 7.86l8.44-.46 35.91-2 184-49.46a4.86 4.86 0 0 0 2.65-1.83 29.45 29.45 0 0 0 5.6-17.12zm-168.69 22.19c5.43 0 9.84 4.06 9.84 9.07s-4.41 9.07-9.84 9.07-9.84-4.06-9.84-9.07 4.4-9.07 9.84-9.07zm134-3.72a44.22 44.22 0 0 1-15.74 4.45l-101.52 9.17a.72.72 0 0 1-.55-1.26 22.67 22.67 0 0 1 12.62-5.63l117.91-13z" fill="#364b60"/><ellipse class="cls-13" cx="184.59" cy="220.34" rx="9.84" ry="9.07"/><ellipse class="cls-3" cx="184.59" cy="220.34" rx="9.84" ry="9.07"/><path d="M170.7 217.83v2.41a1.63 1.63 0 0 1-2.29 1.49l-26.64-11.91.07-.12 3.51-5.56 21.08 7.61a6.48 6.48 0 0 1 4.27 6.08z" stroke="#fff" fill="#fff" stroke-linecap="round" stroke-linejoin="round" stroke-width="2"/><path class="cls-5" d="M331.31 201.26l-12.67 6.29a44.22 44.22 0 0 1-15.79 4.45l-101.52 9.17a.72.72 0 0 1-.55-1.26 22.67 22.67 0 0 1 12.62-5.63z"/><path class="cls-13" d="M315.66 186.15l-2.15 10.72a42.57 42.57 0 0 0 .65 19.47l1.61 5.95"/><path d="M429.42 117.92l-34.35-6.09a73.84 73.84 0 0 0-38.48 3.46L268.46 107l30-2.56a353 353 0 0 1 130.94 13.45z" fill="url(#linear-gradient-7)"/></g></svg>