<svg id="Layer_1" xmlns="http://www.w3.org/2000/svg" viewBox="0 0 633.6 434.5"><style>.st2{fill:#202020}.st7{fill:#fff;stroke:#fff;stroke-width:2;stroke-linecap:round;stroke-linejoin:round}</style><linearGradient id="SVGID_1_" gradientUnits="userSpaceOnUse" y1="196.51" x2="621.975" y2="196.51" gradientTransform="matrix(1 0 0 -1 0 431.906)"><stop offset=".48" stop-color="#8fc7ff"/><stop offset="1" stop-color="#8fabff"/></linearGradient><path d="M608.1 330.7c-33.6 43.6-79 15.3-141.6 13.5-37.3-1.1-7.3 34.7-33.3 50.7-14.7 9-30.2 16.4-46.5 22l-2.5.9c-50.7 17-105.5 17-156.2-.1l-2.5-.9c-16.2-5.7-31.8-13.1-46.5-22.2-29.1-17.9-94.6 2.8-116-60C33.4 247.2 0 318.1 0 267 0 132.6 287.9 92.9 393.1 46.2c106.4-47.3 279.1 201.2 215 284.5z" fill="url(#SVGID_1_)"/><path d="M618.6 176.4c-17.7 34.7-17.7-24.9-35.5-39-18.6-14.8-24.7-27.1-20.2-40.3 10.2-29.9 21.1 22.4 42.5 32.8 23.1 11.5 23.6 26.2 13.2 46.5z" fill="#8fc7ff" stroke="#8fc7ff" stroke-width="2" stroke-linecap="round" stroke-linejoin="round"/><g id="Robin"><path class="st2" d="M375.2 82.2c.1 4-.7 7.9-2.2 11.6-1.3 2.8-3 4.8-4.9 5.6V75.3c1.8-1.5 3.4-3.2 4.7-5.2 1.6 3.8 2.5 7.9 2.4 12.1z"/><linearGradient id="SVGID_2_" gradientUnits="userSpaceOnUse" x1="202.24" y1="15.095" x2="202.24" y2="136.856" gradientTransform="matrix(1 0 0 -1 0 431.906)"><stop offset=".82" stop-color="#fff"/><stop offset="1" stop-color="#e0e0e0"/></linearGradient><path d="M225.5 295v121.8c-16.2-5.7-31.8-13.1-46.5-22.2V295h46.5" fill="url(#SVGID_2_)"/><linearGradient id="SVGID_3_" gradientUnits="userSpaceOnUse" x1="409.925" y1="14.976" x2="409.925" y2="136.856" gradientTransform="matrix(1 0 0 -1 0 431.906)"><stop offset=".82" stop-color="#fff"/><stop offset="1" stop-color="#e0e0e0"/></linearGradient><path d="M386.7 295v121.9c16.2-5.7 31.8-13.1 46.5-22V295h-46.5" fill="url(#SVGID_3_)"/><path d="M437.2 295h-50.5v121.9l-2.5.9c-50.7 17-105.5 17-156.2-.1l-2.5-.9V295h-50.2c-4.1 0-7.5-3.4-7.5-7.5 0-.4 0-.9.1-1.3l9.2-53c2-11.4 10.1-20.7 21.1-24.3 10.1-3.3 23.6-5.3 39.3-5.3 10.7.2 21.4 1.2 32 3v1.2c11.7 7.8 21 16.7 36 16.7 15.5 0 25.2-8.7 37.2-16.9v-.5c8.1-1.4 22.1-3.6 31.9-3.6 16.5 0 30.3 2.3 40.5 6 10.4 3.8 18.1 12.8 20 23.8l9.5 52.9c.7 4.1-2 7.9-6.1 8.6-.4.2-.9.2-1.3.2z" fill="#364b60" stroke="#364b60" stroke-miterlimit="10"/><linearGradient id="SVGID_4_" gradientUnits="userSpaceOnUse" x1="306.09" y1="203.756" x2="306.09" y2="269.315" gradientTransform="matrix(1 0 0 -1 0 431.906)"><stop offset=".62" stop-color="#fff"/><stop offset="1" stop-color="#ccc"/></linearGradient><path d="M342.7 162.6v46.2c-10.6 8.7-23.4 19.4-37.1 19.4-13.3 0-25.7-10.3-36.1-18.5v-47c9.7 10.4 22.5 16.7 36.6 16.7s26.9-6.4 36.6-16.8z" fill="url(#SVGID_4_)"/><path class="st7" d="M377.1 101.3c0 5-4 9-9 9v-11c1.9-.8 3.6-2.8 4.9-5.6 2.5 1.7 4.1 4.6 4.1 7.6zM244.1 93.8v16.6c-5 .1-9.1-3.9-9.1-8.9-.1-4.2 2.8-7.9 6.9-8.9.7.4 1.3.8 2.1 1.1l.1.1z"/><path class="st7" d="M368 75.3v41.2c0 34.2-27.8 62-62.1 61.9-15.2 0-29.9-5.6-41.2-15.7-.9-.8-1.7-1.6-2.5-2.4-11.6-11.6-18.2-27.4-18.1-43.8V93.8c2 .8 4.1 1.1 6.2 1 11-.6 23.9-12.5 31.2-30 5-11.9 6.3-23.9 4.3-32.9 6.2 4.4 15.1 7.7 25.2 8.9h.2c8.1.8 14.7 6.7 16.6 14.5.1.3.2.7.2 1 3.9 15.2 16.7 25.2 29.4 23.6.8-.1 1.7-.3 2.5-.5 2.9-.8 5.7-2.2 8.1-4.1z"/><path d="M325.5 137.8c0 10.1-12 11.8-19.4 11.8-5.8 0-19.4-1.7-19.4-11.8" fill="none" stroke="#202020" stroke-width="2" stroke-miterlimit="10"/><linearGradient id="SVGID_5_" gradientUnits="userSpaceOnUse" x1="239.348" y1="340.696" x2="280.294" y2="411.604" gradientTransform="matrix(1 0 0 -1 0 431.906)"><stop offset=".64" stop-color="#364b60"/><stop offset="1" stop-color="#202020"/></linearGradient><path d="M281.5 64.8c-7.3 17.5-20.2 29.4-31.2 30-2.1.1-4.2-.2-6.2-1l-.2-.1c-.7-.3-1.4-.7-2.1-1.1-10.2-6.5-12-26.2-3.8-45.9 1.6-4 3.7-7.8 6-11.4.6-.9 1.2-1.7 1.8-2.5l1.2-1.5c.2-.2.4-.5.6-.7.4-.5.7-.9 1.1-1.3l.7-.8c1.8-2.1 3.8-4 6-5.7l.8-.6.8-.6c.8-.6 1.7-1.1 2.5-1.6.3-.2.6-.4 1-.5.7-.3 1.3-.7 2-.9l.8-.3.4-.2.6-.2.5-.2.7-.2c.3-.1.5-.1.8-.2l.7-.3c.2 0 .4-.1.6-.1 2.7-.5 5.5-.2 8 .9.3.1.7.3 1 .5 4.6 2.4 7.7 7.3 9.1 13.7 2.1 8.9.8 20.9-4.2 32.8z" fill="url(#SVGID_5_)"/><linearGradient id="SVGID_6_" gradientUnits="userSpaceOnUse" x1="370.061" y1="358.495" x2="292.991" y2="435.565" gradientTransform="matrix(1 0 0 -1 0 431.906)"><stop offset=".64" stop-color="#364b60"/><stop offset="1" stop-color="#202020"/></linearGradient><path d="M372.7 70.1c-1.3 1.9-2.9 3.7-4.7 5.2-2.4 2-5.2 3.4-8.2 4.2-.8.2-1.6.4-2.5.5-12.7 1.7-25.5-8.4-29.4-23.6-.1-.3-.2-.7-.2-1-1.9-7.9-8.5-13.7-16.6-14.5h-.1c-10.1-1.2-19-4.5-25.2-8.9-1.4-6.4-4.5-11.3-9.1-13.7-.1-.6-.1-1.2 0-1.8v-.2c0-.2.1-.4.1-.7v-.1c.6-2.8 2.1-5.3 4.3-7.2 6.6-6.2 19.8-9.5 34.4-7.8 8.5 1 17.6 4.5 24.8 7.8l1.9.9 2.2 1.1 1.2.6c5.3 2.7 10.2 6.1 14.5 10.1l.9.9c.3.3.6.6 1 .9 1.2 1.1 2.4 2.4 3.6 3.7.8.8 1.5 1.7 2.3 2.6 3.8 4.5 7.2 9.7 8.6 14.9 2.6 9.6.9 19.2-3.8 26.1z" fill="url(#SVGID_6_)"/><path d="M278.5 93.3c2.3 0 4.2 1.9 4.2 4.2v8.4c0 2.3-1.9 4.2-4.2 4.2-2.3 0-4.2-1.9-4.2-4.2v-8.4c0-2.3 1.8-4.2 4.2-4.2z"/><path class="st2" d="M333.7 93.3c2.3 0 4.2 1.9 4.2 4.2v8.4c0 2.3-1.9 4.2-4.2 4.2-2.3 0-4.2-1.9-4.2-4.2v-8.4c0-2.3 1.9-4.2 4.2-4.2z"/></g></svg>