<svg xmlns="http://www.w3.org/2000/svg" viewBox="0 0 546.88 499.54"><defs><style>.cls-3{fill:none;stroke:#364b60;stroke-miterlimit:10}</style><linearGradient id="linear-gradient" y1="249.77" x2="546.88" y2="249.77" gradientUnits="userSpaceOnUse"><stop offset=".48" stop-color="#8fc7ff"/><stop offset="1" stop-color="#8fabff"/></linearGradient></defs><g id="Layer_3" data-name="Layer 3"><path d="M524.94 141C620.69 235.89 379.83 437.73 251 494 127.44 548 0 189.88 0 55.06s146.53 20.37 281.35 20.37S441.39 58.16 524.94 141z" fill="url(#linear-gradient)"/><path d="M231.33 56c-16.7-10.61-66.73-5.9-37.8-17.6 56.95-23 63.11 3.6 93 7.76 42.84 6 36.17 16.65 29.16 16.69-22.31.07-58.92 9.26-84.36-6.85z" fill="#8fc7ff" stroke="#8fc7ff" stroke-linecap="round" stroke-linejoin="round" stroke-width="2"/><path class="cls-3" d="M417.83 239.92v107.87M407.83 239.92v28M387.83 239.92v40h10v-40M377.83 239.92v63.79h13.68M367.83 239.92v36.75M357.83 239.92v76.75M347.83 239.92v63.79M337.83 239.92v98.14h-27.97v-4.08"/><path class="cls-3" d="M317.83 239.92v91h10v-91M307.83 239.92v47.32M297.83 239.92v28.94M287.83 239.92v78.44M277.83 276.63v-36.71M257.83 297.09v-8.08M247.83 239.92v82.42M237.83 239.92V302.16h-17.79M217.83 239.92v28h10v-28M207.83 239.92v40.43M187.83 239.92v15.92h3.11v9.03l-3.11.05v11.38"/><path class="cls-3" d="M177.83 239.92v54h20v-54M167.83 239.92v49.9M157.83 239.92v80.87M147.83 239.92v35M107.9 306.9h29.93v-66.98"/><path class="cls-3" d="M117.83 239.92v60h10v-60M407.83 380.79v-95M397.83 333.8v47M387.83 350.8v30M367.83 380.8v-62h10v62M357.83 380.8V330.57h-3.46M347.83 343.8v37M327.83 380.8v-25h10v25"/><path class="cls-3" d="M317.83 380.8v-35h24.97v-11.4M307.83 356.8v24M297.83 280.35V380.8M277.83 380.79v-18.33M277.83 349.24v-9.45h10v41M257.83 380.79v-17.1M257.83 348.02V313.79M247.83 333.8v47M227.83 380.8v-65h10v65M217.83 316.8v64M207.83 334.4v46.4M197.83 304.4v76.4M187.83 380.8v-64.85h-24.39v34.84"/><path class="cls-3" d="M167.83 380.8v-40h10v40M157.83 334.4v46.4M147.83 295.82v84.98M107.88 320.7v-6.86h29.95v66.95"/><path class="cls-3" d="M127.83 380.79v-60h-10v34.17M207.83 280.35h23.89M287.83 318.36h-5.71"/><circle class="cls-3" cx="352.87" cy="330.57" r="1.5"/><circle class="cls-3" cx="387.83" cy="349.3" r="1.5"/><circle class="cls-3" cx="397.83" cy="332.3" r="1.5"/><circle class="cls-3" cx="407.83" cy="284.3" r="1.5"/><circle class="cls-3" cx="392.83" cy="303.71" r="1.5"/><circle class="cls-3" cx="367.83" cy="278.17" r="1.5"/><circle class="cls-3" cx="357.83" cy="318.17" r="1.5"/><circle class="cls-3" cx="347.83" cy="305.21" r="1.5"/><circle class="cls-3" cx="310.02" cy="332.9" r="1.5"/><circle class="cls-3" cx="307.83" cy="355.69" r="1.5"/><circle class="cls-3" cx="307.83" cy="288.99" r="1.5"/><circle class="cls-3" cx="297.83" cy="278.85" r="1.5"/><circle class="cls-3" cx="297.83" cy="270.36" r="1.5"/><circle class="cls-3" cx="280.69" cy="318.36" r="1.5"/><circle class="cls-3" cx="257.83" cy="312.42" r="1.5"/><circle class="cls-3" cx="257.83" cy="298.36" r="1.5"/><circle class="cls-3" cx="247.83" cy="323.84" r="1.5"/><circle class="cls-3" cx="247.83" cy="332.42" r="1.5"/><circle class="cls-3" cx="217.83" cy="315.69" r="1.5"/><circle class="cls-3" cx="207.83" cy="333.17" r="1.5"/><circle class="cls-3" cx="197.83" cy="303.17" r="1.5"/><circle class="cls-3" cx="218.43" cy="302.16" r="1.5"/><circle class="cls-3" cx="233.22" cy="280.35" r="1.5"/><circle class="cls-3" cx="187.88" cy="277.35" r="1.5"/><circle class="cls-3" cx="167.83" cy="290.95" r="1.5"/><circle class="cls-3" cx="147.83" cy="276.3" r="1.5"/><circle class="cls-3" cx="147.83" cy="294.32" r="1.5"/><circle class="cls-3" cx="157.83" cy="333.17" r="1.5"/><circle class="cls-3" cx="157.83" cy="322.34" r="1.5"/><circle class="cls-3" cx="163.45" cy="352" r="1.5"/><circle class="cls-3" cx="407.83" cy="269.42" r="1.5"/><circle class="cls-3" cx="417.83" cy="349.29" r="1.5"/><circle class="cls-3" cx="347.83" cy="342.3" r="1.5"/><circle class="cls-3" cx="342.8" cy="332.9" r="1.5"/><path class="cls-3" d="M417.85 239.92v107.87M407.85 239.92v28M387.85 239.92v40h10v-40M377.85 239.92v63.79h13.67M367.85 239.92v36.75M357.85 239.92v76.75M347.85 239.92v63.79M337.85 239.92v98.14h-27.98v-4.08"/><path class="cls-3" d="M317.85 239.92v91h10v-91M307.85 239.92v47.32M297.85 239.92v28.94M287.85 239.92v78.44M277.84 306.65v-66.73M257.84 297.09v-38.07M247.85 239.92v82.42M237.85 239.92V302.16h-17.8M217.85 239.92v28h10v-28M207.85 239.92v40.43M187.85 239.92v15.92h3.1v9.03l-3.1.05v11.38"/><path class="cls-3" d="M177.85 239.92v54h20v-54M167.85 239.92v49.9M157.85 239.92v80.87M147.85 239.92v35M107.9 306.9h29.94v-66.98"/><path class="cls-3" d="M117.85 239.92v60h10v-60M407.84 380.79v-95M397.85 333.8v47M387.85 350.8v30M367.85 380.8v-62h10v62M357.85 380.8V330.57h-3.47M347.85 343.8v37M327.85 380.8v-25h10v25"/><path class="cls-3" d="M317.85 380.8v-35h24.96v-11.4M307.85 356.8v24M297.85 280.35V380.8M287.84 380.79v-41h-10v9.47M277.84 380.79v-18.35M257.84 380.79V363.7M257.84 348v-34.21M247.85 333.8v47M227.85 380.8v-65h10v65M217.85 316.8v64M207.85 334.4v46.4M197.85 304.4v76.4M187.85 380.8v-64.85h-24.39v34.84"/><path class="cls-3" d="M167.85 380.8v-40h10v40M157.85 334.4v46.4M147.85 295.82v84.98M107.9 320.77v-6.93h29.94v66.95"/><path class="cls-3" d="M117.84 354.97v-34.18h10v60M207.85 280.35h23.89M287.85 318.36h-5.71"/><circle class="cls-3" cx="352.88" cy="330.57" r="1.5"/><circle class="cls-3" cx="387.85" cy="349.3" r="1.5"/><circle class="cls-3" cx="397.85" cy="332.3" r="1.5"/><circle class="cls-3" cx="407.85" cy="284.3" r="1.5"/><circle class="cls-3" cx="392.85" cy="303.71" r="1.5"/><circle class="cls-3" cx="367.85" cy="278.17" r="1.5"/><circle class="cls-3" cx="357.85" cy="318.17" r="1.5"/><circle class="cls-3" cx="347.85" cy="305.21" r="1.5"/><circle class="cls-3" cx="310.03" cy="332.9" r="1.5"/><circle class="cls-3" cx="307.85" cy="355.69" r="1.5"/><circle class="cls-3" cx="307.85" cy="288.99" r="1.5"/><circle class="cls-3" cx="297.85" cy="278.85" r="1.5"/><circle class="cls-3" cx="297.85" cy="270.36" r="1.5"/><circle class="cls-3" cx="280.7" cy="318.36" r="1.5"/><circle class="cls-3" cx="257.85" cy="312.42" r="1.5"/><circle class="cls-3" cx="257.85" cy="298.36" r="1.5"/><circle class="cls-3" cx="247.85" cy="323.84" r="1.5"/><circle class="cls-3" cx="247.85" cy="332.42" r="1.5"/><circle class="cls-3" cx="217.85" cy="315.69" r="1.5"/><circle class="cls-3" cx="207.85" cy="333.17" r="1.5"/><circle class="cls-3" cx="197.85" cy="303.17" r="1.5"/><circle class="cls-3" cx="218.45" cy="302.16" r="1.5"/><circle class="cls-3" cx="233.24" cy="280.35" r="1.5"/><circle class="cls-3" cx="187.9" cy="277.35" r="1.5"/><circle class="cls-3" cx="167.85" cy="290.95" r="1.5"/><circle class="cls-3" cx="147.85" cy="276.3" r="1.5"/><circle class="cls-3" cx="147.85" cy="294.32" r="1.5"/><circle class="cls-3" cx="157.85" cy="333.17" r="1.5"/><circle class="cls-3" cx="157.85" cy="322.34" r="1.5"/><circle class="cls-3" cx="163.46" cy="352" r="1.5"/><circle class="cls-3" cx="157.85" cy="416.09" r="1.5"/><circle class="cls-3" cx="147.83" cy="407.62" r="1.5"/><circle class="cls-3" cx="117.83" cy="355.69" r="1.5"/><circle class="cls-3" cx="106.33" cy="306.9" r="1.5"/><circle class="cls-3" cx="127.85" cy="199.92" r="1.5"/><circle class="cls-3" cx="130.71" cy="169.96" r="1.5"/><circle class="cls-3" cx="177.83" cy="83.89" r="1.5"/><circle class="cls-3" cx="207.83" cy="58.04" r="1.5"/><circle class="cls-3" cx="197.85" cy="66.27" r="1.5"/><circle class="cls-3" cx="247.85" cy="54.88" r="1.5"/><circle class="cls-3" cx="277.83" cy="59.66" r="1.5"/><circle class="cls-3" cx="297.85" cy="51.64" r="1.5"/><circle class="cls-3" cx="334.61" cy="64.04" r="1.5"/><circle class="cls-3" cx="377.83" cy="118.15" r="1.5"/><circle class="cls-3" cx="417.85" cy="219.42" r="1.5"/><circle class="cls-3" cx="377.83" cy="415.51" r="1.5"/><circle class="cls-3" cx="327.85" cy="446.46" r="1.5"/><circle class="cls-3" cx="317.83" cy="449.13" r="1.5"/><circle class="cls-3" cx="277.83" cy="360.8" r="1.5"/><circle class="cls-3" cx="407.83" cy="380.79" r="1.5"/><circle class="cls-3" cx="407.85" cy="269.42" r="1.5"/><circle class="cls-3" cx="417.85" cy="349.29" r="1.5"/><circle class="cls-3" cx="347.85" cy="342.3" r="1.5"/><circle class="cls-3" cx="342.81" cy="332.9" r="1.5"/><path class="cls-3" d="M377.83 118.15v44.68h13.68M367.83 99.04v76.76M357.83 99.04v81.76M347.83 99.04v63.79M337.83 99.05v98.13h-27.97v-4.08"/><path class="cls-3" d="M317.83 99.05v90.99h10V99.05M307.83 99.04v47.32M297.83 99.04v28.94M287.83 99.04v58.44M275.24 137.04h2.59v-38M257.83 99.04v57.18M247.83 99.04v82.43M237.83 99.05V161.28h-27.79"/><path class="cls-3" d="M217.83 99.05v28h10v-28M207.83 99.04v40.44M187.83 99.05v15.92h3.11v9.02l-3.11.06v41.38"/><path class="cls-3" d="M177.83 99.05v73.99h20V99.05M167.83 99.04v49.9M157.83 179.91v-63.59M417.83 239.92V221.4M407.83 239.92v-37.27M397.83 192.92v47M387.83 179.92v60M367.83 239.92v-42h10v42M357.83 239.92V189.7h-3.46M347.83 182.92v57M327.83 239.92v-25h10v25"/><path class="cls-3" d="M317.83 239.92v-35h24.97v-11.4M307.83 215.92v24M297.83 139.48v100.44M277.83 239.92v-41h10v41M278.74 187.47h-7.39M257.83 172.92v67M247.83 192.92v47M227.83 239.92v-65h10v65M217.83 205.92v34M207.83 193.52v46.4M197.83 183.52v56.4M187.83 239.92v-44.85h-24.39v14.85"/><path class="cls-3" d="M167.83 239.92v-40h10v40M157.83 193.52v46.4M147.83 154.95v84.97M131.83 169.96h6V239.92M127.83 239.92v-38.77M117.83 239.92v-19.11M207.83 139.48h23.89M287.83 157.48h-5.71"/><circle class="cls-3" cx="352.87" cy="189.7" r="1.5"/><circle class="cls-3" cx="387.83" cy="178.42" r="1.5"/><circle class="cls-3" cx="397.83" cy="191.42" r="1.5"/><circle class="cls-3" cx="392.83" cy="162.83" r="1.5"/><circle class="cls-3" cx="367.83" cy="177.3" r="1.5"/><circle class="cls-3" cx="357.83" cy="182.3" r="1.5"/><circle class="cls-3" cx="347.83" cy="164.33" r="1.5"/><circle class="cls-3" cx="310.02" cy="192.02" r="1.5"/><circle class="cls-3" cx="307.83" cy="214.81" r="1.5"/><circle class="cls-3" cx="307.83" cy="148.11" r="1.5"/><circle class="cls-3" cx="297.83" cy="137.98" r="1.5"/><circle class="cls-3" cx="297.83" cy="129.48" r="1.5"/><circle class="cls-3" cx="280.69" cy="157.48" r="1.5"/><circle class="cls-3" cx="280.69" cy="187.47" r="1.5"/><circle class="cls-3" cx="257.83" cy="171.54" r="1.5"/><circle class="cls-3" cx="257.83" cy="157.48" r="1.5"/><circle class="cls-3" cx="247.83" cy="182.97" r="1.5"/><circle class="cls-3" cx="247.83" cy="191.54" r="1.5"/><circle class="cls-3" cx="217.83" cy="204.81" r="1.5"/><circle class="cls-3" cx="207.83" cy="192.3" r="1.5"/><circle class="cls-3" cx="197.83" cy="182.3" r="1.5"/><circle class="cls-3" cx="208.43" cy="161.28" r="1.5"/><circle class="cls-3" cx="233.22" cy="139.48" r="1.5"/><circle class="cls-3" cx="187.88" cy="166.48" r="1.5"/><circle class="cls-3" cx="167.83" cy="150.07" r="1.5"/><circle class="cls-3" cx="147.83" cy="153.45" r="1.5"/><circle class="cls-3" cx="157.83" cy="192.3" r="1.5"/><circle class="cls-3" cx="157.83" cy="181.47" r="1.5"/><circle class="cls-3" cx="163.45" cy="211.13" r="1.5"/><circle class="cls-3" cx="347.83" cy="181.42" r="1.5"/><circle class="cls-3" cx="342.8" cy="192.02" r="1.5"/><path class="cls-3" d="M377.84 118.17v44.66h13.68M367.85 99.04v76.76M357.85 99.04v81.76M347.85 99.04v63.79M337.85 99.05v98.13h-27.98v-4.08"/><path class="cls-3" d="M317.85 99.05v90.99h10V99.05M307.85 99.04v47.32M297.85 99.04v28.94M287.85 99.04v58.44M275.24 137.04H277.84v-38M257.85 99.04v57.18M247.85 99.04v82.43M237.85 99.05V161.28h-27.8"/><path class="cls-3" d="M217.85 99.05v28h10v-28M207.85 99.04v40.44M187.85 99.05v15.92h3.1v9.02l-3.1.06v41.38"/><path class="cls-3" d="M177.85 99.05v73.99h20V99.05M167.85 99.04v49.9M417.84 239.92v-18.51M407.84 239.92v-37.25M397.85 192.92v47M387.85 179.92v60M367.85 239.92v-42h10v42M357.85 239.92V189.7h-3.46M347.85 182.92v57M327.85 239.92v-25h10v25"/><path class="cls-3" d="M317.85 239.92v-35h24.96v-11.4M307.85 215.92v24M297.85 139.48v100.44M277.85 239.92v-41h10v41M278.76 187.47H271.35M257.85 172.92v67M247.85 192.92v47M227.85 239.92v-65h10v65M217.85 205.92v34M207.85 193.52v46.4M197.85 183.52v56.4M187.85 239.92v-44.85h-24.39v14.85"/><path class="cls-3" d="M167.85 239.92v-40h10v40M157.85 193.52v46.4M147.85 154.95v84.97M131.83 169.96h6.01V239.92M127.84 239.92v-38.79M117.84 239.92V220.8M207.85 139.48h23.89M287.85 157.48h-5.71"/><circle class="cls-3" cx="352.88" cy="189.7" r="1.5"/><circle class="cls-3" cx="387.85" cy="178.42" r="1.5"/><circle class="cls-3" cx="397.85" cy="191.42" r="1.5"/><circle class="cls-3" cx="392.85" cy="162.83" r="1.5"/><circle class="cls-3" cx="367.85" cy="177.3" r="1.5"/><circle class="cls-3" cx="357.85" cy="182.3" r="1.5"/><circle class="cls-3" cx="347.85" cy="164.33" r="1.5"/><circle class="cls-3" cx="310.03" cy="192.02" r="1.5"/><circle class="cls-3" cx="307.85" cy="214.81" r="1.5"/><circle class="cls-3" cx="307.85" cy="148.11" r="1.5"/><circle class="cls-3" cx="297.85" cy="137.98" r="1.5"/><circle class="cls-3" cx="297.85" cy="129.48" r="1.5"/><circle class="cls-3" cx="280.7" cy="157.48" r="1.5"/><circle class="cls-3" cx="280.7" cy="187.47" r="1.5"/><circle class="cls-3" cx="257.85" cy="171.54" r="1.5"/><circle class="cls-3" cx="257.85" cy="157.48" r="1.5"/><circle class="cls-3" cx="247.85" cy="182.97" r="1.5"/><circle class="cls-3" cx="247.85" cy="191.54" r="1.5"/><circle class="cls-3" cx="217.85" cy="204.81" r="1.5"/><circle class="cls-3" cx="207.85" cy="192.3" r="1.5"/><circle class="cls-3" cx="197.85" cy="182.3" r="1.5"/><circle class="cls-3" cx="208.45" cy="161.28" r="1.5"/><circle class="cls-3" cx="233.24" cy="139.48" r="1.5"/><circle class="cls-3" cx="187.9" cy="166.48" r="1.5"/><circle class="cls-3" cx="167.85" cy="150.07" r="1.5"/><circle class="cls-3" cx="147.85" cy="153.45" r="1.5"/><circle class="cls-3" cx="157.85" cy="192.3" r="1.5"/><circle class="cls-3" cx="157.85" cy="181.47" r="1.5"/><circle class="cls-3" cx="163.46" cy="211.13" r="1.5"/><circle class="cls-3" cx="347.85" cy="181.42" r="1.5"/><circle class="cls-3" cx="342.81" cy="192.02" r="1.5"/><path class="cls-3" d="M367.83 99.04v-4.98M357.83 99.04V84.21M347.83 99.04V78.22M327.83 99.04v-25h10v25"/><path class="cls-3" d="M317.83 99.04v-35h15.28M307.83 75.04v24M297.83 99.04v-45.7M287.83 99.04v-41h-5.48M277.83 99.04V61.07M257.83 99.04V61.75M247.83 99.04V56.11M237.83 99.04v-45.6M227.83 99.04v-45.9M217.83 75.04v24M207.83 99.04V59.66M197.83 99.04V67.78M187.83 99.04V77.57M177.83 99.04V83.89M167.83 99.04v-6.81"/><circle class="cls-3" cx="307.83" cy="73.93" r="1.5"/><circle class="cls-3" cx="217.83" cy="73.93" r="1.5"/><path class="cls-3" d="M367.84 99.04v-4.95M357.84 99.04V84.21M347.84 99.04V78.23M327.85 99.05v-25h10v25"/><path class="cls-3" d="M317.84 99.04v-35h15.27M307.85 75.04v24M297.84 99.04v-45.7M287.84 99.04v-41h-5.49M277.84 99.04V61.06M257.84 99.04V61.76M247.84 99.04V56.11M237.84 99.04V53.45M227.84 99.04v-45.9M217.85 75.04v24M207.84 99.04V59.66M197.84 99.04V67.77M187.84 99.04V77.57M177.84 99.04V83.89M167.84 99.04v-6.83"/><circle class="cls-3" cx="307.85" cy="73.93" r="1.5"/><circle class="cls-3" cx="217.85" cy="73.93" r="1.5"/><path class="cls-3" d="M397.83 393.33v-12.54M387.83 405.38v-24.59M377.83 414.01v-33.22M367.83 422.04v-41.25M357.83 380.8v46.75M347.83 435.24v-54.45M337.83 380.79v59.8M327.83 444.95v-64.16M317.83 447.63v-66.84M307.83 380.8v47.31M297.83 380.8v28.93M287.83 380.8v58.43M277.83 380.79v38h-4.39M257.83 380.8v57.17M247.83 448.39v-67.6M237.83 380.8V443.03h-17.79M217.83 380.8v28h10v-28M207.83 380.8v40.43M187.83 380.8v15.92h3.11v9.02l-3.11.06v11.38"/><path class="cls-3" d="M177.83 380.8v44h20v-44M167.83 422.61v-41.82M157.83 414.64v-33.85M147.83 406.12v-25.33M137.83 394.45v-13.66M127.83 381.09v-.3M297.83 448.86v-27.63M207.83 421.23h23.89M287.83 439.23h-5.71"/><circle class="cls-3" cx="357.83" cy="429.05" r="1.5"/><circle class="cls-3" cx="307.83" cy="429.86" r="1.5"/><circle class="cls-3" cx="297.83" cy="419.73" r="1.5"/><circle class="cls-3" cx="297.83" cy="411.23" r="1.5"/><circle class="cls-3" cx="280.69" cy="439.23" r="1.5"/><circle class="cls-3" cx="257.83" cy="439.23" r="1.5"/><circle class="cls-3" cx="218.43" cy="443.03" r="1.5"/><circle class="cls-3" cx="233.22" cy="421.23" r="1.5"/><circle class="cls-3" cx="187.88" cy="418.23" r="1.5"/><path class="cls-3" d="M397.84 393.32v-12.53M387.84 405.37v-24.58M377.84 414v-33.21M367.84 422.03v-41.24M357.85 380.8v46.75M347.84 435.24v-54.45M337.84 380.79v59.79M327.84 380.79v64.17M317.84 447.63v-66.84M307.85 380.8v47.31M297.85 380.8v28.93M287.85 380.8v58.43M277.84 380.79v38H273.44M257.85 380.8v57.17M247.84 448.39v-67.6M237.85 380.8V443.03h-17.8M217.85 380.8v28h10v-28M207.85 380.8v40.43M187.85 380.8v15.92h3.1v9.02l-3.1.06v11.38"/><path class="cls-3" d="M177.85 380.8v44h20v-44M167.84 422.61v-41.82M157.84 414.65v-33.86M147.84 406.13v-25.34M137.84 394.46v-13.67M127.84 381.1v-.31M297.84 448.86v-27.63M207.85 421.23h23.89M287.85 439.23h-5.71"/><circle class="cls-3" cx="357.85" cy="429.05" r="1.5"/><circle class="cls-3" cx="307.85" cy="429.86" r="1.5"/><circle class="cls-3" cx="297.85" cy="419.73" r="1.5"/><circle class="cls-3" cx="297.85" cy="411.23" r="1.5"/><circle class="cls-3" cx="280.7" cy="439.23" r="1.5"/><circle class="cls-3" cx="257.85" cy="439.23" r="1.5"/><circle class="cls-3" cx="218.45" cy="443.03" r="1.5"/><circle class="cls-3" cx="233.24" cy="421.23" r="1.5"/><circle class="cls-3" cx="187.9" cy="418.23" r="1.5"/></g></svg>