<svg xmlns="http://www.w3.org/2000/svg" xmlns:xlink="http://www.w3.org/1999/xlink" viewBox="0 0 521.24 464.89"><defs><style>.cls-3{fill:#202020}.cls-4{fill:none;stroke:#000;stroke-linecap:round;stroke-linejoin:round;stroke-width:2px}.cls-8{fill:#fff;stroke:#fff;stroke-miterlimit:10}</style><linearGradient id="linear-gradient" x1="433.1" y1="497.06" x2="194.23" y2="83.33" gradientUnits="userSpaceOnUse"><stop offset=".48" stop-color="#8fc7ff"/><stop offset="1" stop-color="#8fabff"/></linearGradient><linearGradient id="linear-gradient-2" x1="41.74" y1="102.9" x2="205.72" y2="102.9" xlink:href="#linear-gradient"/><linearGradient id="linear-gradient-3" x1="353.18" y1="268.55" x2="353.18" y2="194.88" gradientUnits="userSpaceOnUse"><stop offset=".5" stop-color="#364b60"/><stop offset="1" stop-color="#202020"/></linearGradient><linearGradient id="linear-gradient-4" x1="121.42" y1="354.17" x2="121.42" y2="201.1" xlink:href="#linear-gradient-3"/></defs><g id="Layer_5" data-name="Layer 5"><path d="M511.84 417.88c0 115.7-135-18.58-286.57-18.58S29.7 418.37 29.7 302.68 262.75 0 414.37 0s97.47 302.19 97.47 417.88z" fill="url(#linear-gradient)"/><path d="M132.17 110c57-24.36 98.22-79.64 56.61-70.53-12.05 2.64-139.59 18.1-146.57 73.67-4 32.14 19.34 54.11 31.67 54.18 21.52.12 28.51-44.57 58.29-57.32z" fill="url(#linear-gradient-2)"/><path class="cls-3" d="M286.15 212.93l-20.89 8.89-1.2-11.2 16.27-6.92a13.94 13.94 0 0 1 2.9 3.74zM44.84 272.05L24 275.84l9.22-12.37 2.09.75A18.06 18.06 0 0 1 44.8 272z"/><path class="cls-4" d="M54.32 270.33l-.14.03-2.04-3.44 2.18 3.41z"/><path class="cls-3" d="M76.78 322a26.31 26.31 0 0 1-22.71 3.18l-7.59-2.45a24.93 24.93 0 0 1-16.39-17.12 11.07 11.07 0 0 1-.39-2.9 10.94 10.94 0 0 1 1.95-6.23L46.56 275 65 306a98.92 98.92 0 0 0 11.78 16z"/><path class="cls-4" d="M54.32 270.33l-.14.03-2.04-3.44 2.18 3.41z"/><path class="cls-3" d="M33.24 263.47l-9.22 12.37h-.04l-.23-.4L0 232.36l17.58-24.8 9.98 42.66 2.86 12.25 2.82 1z"/><path d="M439.54 243.88a58.22 58.22 0 0 1-14.54 8.61l-22.6 9.35a88.18 88.18 0 0 1-111.56-40.08l-4.71-8.83-2.92-5.49a13.94 13.94 0 0 0-2.9-3.74 14.11 14.11 0 0 0-13.52-3.17A14.11 14.11 0 0 1 289 200a13.74 13.74 0 0 1 1.59 2.36l3.76 7.06 3.86 7.26a88.19 88.19 0 0 0 111.56 40.08l22.61-9.35a58.29 58.29 0 0 0 7.16-3.53z" fill="url(#linear-gradient-3)"/><path d="M225.27 326.3a88.37 88.37 0 0 1-14.64 9.08L193 344.05A98.23 98.23 0 0 1 65 306l-18.44-31-1.72-2.91v-.06a18.06 18.06 0 0 0-9.46-7.77l-2.09-.75-2.82-1-2.86-12.25-10-42.66 3.89-5.5 3.12-1 11.14 47.64 2 8.66 4.92 1.75a18 18 0 0 1 9.45 7.77l2 3.44L72.37 301a98.27 98.27 0 0 0 128 38l17.63-8.68a96.73 96.73 0 0 0 7.27-4.02z" fill="url(#linear-gradient-4)"/><path d="M466.19 174.71l-11.31-35.56a8.79 8.79 0 0 1 5.7-11.06L435.9 79.43l-190.42 50.3-224 72.33 14.26 46.68 2 8.66 4.92 1.75a18 18 0 0 1 9.45 7.77l2.18 3.41h-.14L72.37 301a98.27 98.27 0 0 0 128 38l17.63-8.68c2.51-1.24 4.95-2.58 7.3-4a89.21 89.21 0 0 0 42-85.57l-2-18.91-1.2-11.2v-.08a13.07 13.07 0 0 1-.1-1.56 14.13 14.13 0 0 1 2.83-8.48A14.11 14.11 0 0 1 289 200a13.74 13.74 0 0 1 1.59 2.36l3.76 7.06 3.86 7.26a88.19 88.19 0 0 0 111.56 40.08l22.61-9.35a58.29 58.29 0 0 0 7.17-3.55 59.25 59.25 0 0 0 26.64-69.15zm-256 143.41L182 330.49A73.17 73.17 0 0 1 89.8 301l-20-33.44-1.95-3.27a50.9 50.9 0 0 1 30.82-75.4l80.87-21.2A51.06 51.06 0 0 1 241 201.17l9.1 27.83a72.62 72.62 0 0 1-39.88 89.12zm62.56-137.63l-10.25 3.59a10.35 10.35 0 0 1-12.91-5.61L244 165.72a10.36 10.36 0 0 1 5.9-13.88l10.63-3.92a10.35 10.35 0 0 1 13.2 5.89l5.27 13.08a10.35 10.35 0 0 1-6.22 13.6zm151.1 61.56l-12.83 5.12a77.64 77.64 0 0 1-100.8-43L299.3 177a38.58 38.58 0 0 1 25.2-51.54l66.07-18.82a41.62 41.62 0 0 1 50.93 27l13.62 41.4a54 54 0 0 1-31.24 67.01z" fill="#8fc7ff" stroke="#8fc7ff" stroke-linecap="round" stroke-linejoin="round" stroke-width="2"/><path class="cls-8" d="M210.22 318.12L182 330.49A73.17 73.17 0 0 1 89.8 301l-20-33.44-1.95-3.27a50.9 50.9 0 0 1 30.82-75.4l80.87-21.2A51.06 51.06 0 0 1 241 201.17l9.1 27.83a72.62 72.62 0 0 1-39.88 89.12zM423.88 242.05l-12.83 5.12a77.64 77.64 0 0 1-100.8-43L299.3 177a38.58 38.58 0 0 1 25.2-51.54l66.07-18.82a41.62 41.62 0 0 1 50.93 27l13.62 41.4a54 54 0 0 1-31.24 67.01z"/><path d="M272.78 180.49l-10.25 3.59a10.35 10.35 0 0 1-12.91-5.61L244 165.72a10.36 10.36 0 0 1 5.9-13.88l10.63-3.92a10.35 10.35 0 0 1 13.2 5.89l5.27 13.08a10.35 10.35 0 0 1-6.22 13.6z" fill="#364b60"/><circle class="cls-3" cx="261.76" cy="165.84" r="9.52"/></g></svg>