<svg xmlns="http://www.w3.org/2000/svg" viewBox="0 0 48.067 47.013"><g stroke="#8f8fff"><path data-name="Path 530" d="M24.002 2.432a1.146 1.146 0 0 1 1.04.629l20.416 39.872a1.117 1.117 0 0 1-.051 1.108 1.171 1.171 0 0 1-.99.541H3.649a1.171 1.171 0 0 1-.99-.54 1.117 1.117 0 0 1-.051-1.107L22.962 3.062a1.146 1.146 0 0 1 1.041-.631m0-.931a2.1 2.1 0 0 0-1.9 1.146L1.755 42.519a2.031 2.031 0 0 0 .094 2.013 2.128 2.128 0 0 0 1.8.982h40.768a2.128 2.128 0 0 0 1.8-.983 2.031 2.031 0 0 0 .092-2.015L25.893 2.644A2.1 2.1 0 0 0 24.001 1.5z" stroke-width="3" fill="#8f8fff"/><path data-name="Line 391" fill="none" stroke-linecap="round" stroke-linejoin="round" d="M23.998 2.162v34.156"/><path data-name="Path 531" d="M24.035 36.863a1.371 1.371 0 1 1-1.37 1.371 1.371 1.371 0 0 1 1.37-1.371m0-.338a1.708 1.708 0 1 0 1.209.5 1.709 1.709 0 0 0-1.209-.5z" fill="#8f8fff"/></g></svg>