<svg xmlns="http://www.w3.org/2000/svg" xmlns:xlink="http://www.w3.org/1999/xlink" viewBox="0 0 717.37 624.89"><defs><style>.cls-5{stroke-miterlimit:10;fill:#fff;stroke:#fff}</style><linearGradient id="linear-gradient" y1="262.39" x2="717.37" y2="262.39" gradientUnits="userSpaceOnUse"><stop offset=".48" stop-color="#8fc7ff"/><stop offset="1" stop-color="#8fabff"/></linearGradient><linearGradient id="linear-gradient-2" x1="150.27" y1="162.48" x2="328.2" y2="162.48" gradientUnits="userSpaceOnUse"><stop offset=".64" stop-color="#364b60"/><stop offset="1" stop-color="#202020"/></linearGradient><linearGradient id="linear-gradient-3" x1="479.4" y1="319.24" x2="312.59" y2="319.24" xlink:href="#linear-gradient-2"/></defs><g id="Layer_8" data-name="Layer 8"><path d="M717.37 60.78c0 181.62-83 464-264.62 464S0 467.65 0 286s156.25-123.52 337.87-123.52 379.5-283.33 379.5-101.7z" fill="url(#linear-gradient)"/><path d="M328.2 220.28L297 251.45l-60.71-60.71a61.25 61.25 0 0 1-85-67.23c1.24 1.42 2.54 2.8 3.9 4.17 21.35 21.35 49.68 27.63 63.27 14s7.31-41.91-14-63.26a79.963 79.963 0 0 0-4.17-3.9 61.26 61.26 0 0 1 67.24 85z" fill="url(#linear-gradient-2)"/><path d="M478.36 352.65a79.963 79.963 0 0 0-3.9-4.17c-21.35-21.35-49.67-27.63-63.26-14s-7.32 41.92 14 63.27c1.37 1.36 2.75 2.66 4.17 3.9a61.25 61.25 0 0 1-67.23-85L312.59 267l31.17-31.16 49.57 49.57a61.26 61.26 0 0 1 85 67.24z" fill="url(#linear-gradient-3)"/><path stroke-miterlimit="10" fill="#364b60" stroke="#364b60" d="M453.27 110.77l-6.4 21.95-115.11 115.12L300.59 279l-3.24 3.24-15.55-15.55 3.24-3.24 31.16-31.17 115.12-115.12 21.95-6.39z"/><path class="cls-5" d="M334.19 335l-7.13 7.12a11.26 11.26 0 0 1-15.93 0l-10.67-10.66-67.9-67.9-10.66-10.65a11.26 11.26 0 0 1 0-15.93l7.12-7.13a11.27 11.27 0 0 1 15.94 0l52.39 52.39 36.84 36.84a11.27 11.27 0 0 1 0 15.92zM190.07 403.77L160.27 374a47.35 47.35 0 0 1 9.89-74.54l62.41-35.85 67.89 67.89-35.85 62.41a47.35 47.35 0 0 1-74.54 9.86z"/></g></svg>