<svg xmlns="http://www.w3.org/2000/svg" xmlns:xlink="http://www.w3.org/1999/xlink" viewBox="0 0 538.84 398.94"><defs><style>.cls-4{fill:#364b60}.cls-5{fill:#fff;stroke:#fff;stroke-miterlimit:10}.cls-8{fill:#202020}</style><linearGradient id="linear-gradient" x1="269.42" y1="398.94" x2="269.42" gradientUnits="userSpaceOnUse"><stop offset=".48" stop-color="#8fc7ff"/><stop offset="1" stop-color="#8fabff"/></linearGradient><linearGradient id="linear-gradient-2" x1="173.53" y1="286.61" x2="173.53" y2="229.33" gradientUnits="userSpaceOnUse"><stop offset=".64" stop-color="#364b60"/><stop offset="1" stop-color="#202020"/></linearGradient><linearGradient id="linear-gradient-3" x1="310.09" y1="312.7" x2="310.09" y2="283.03" xlink:href="#linear-gradient-2"/><linearGradient id="linear-gradient-4" x1="422.58" y1="291.71" x2="438.53" y2="268.94" gradientUnits="userSpaceOnUse"><stop offset="0" stop-color="#35495d"/><stop offset="1" stop-color="#202020"/></linearGradient><linearGradient id="linear-gradient-5" x1="428.91" y1="315.51" x2="478" y2="315.51" gradientUnits="userSpaceOnUse"><stop offset="0" stop-color="#364b60"/><stop offset="1" stop-color="#202020"/></linearGradient></defs><g id="Layer_2" data-name="Layer 2"><path d="M538.84 187.52c0 101.35-119.91 240.42-250 206.1-115.31-30.41-242.25-75.4-242.25-176.75S-69.59 0 65 0s473.84 86.17 473.84 187.52z" fill="url(#linear-gradient)"/><path d="M141.42 357.3c14.78 8.45 32.11 14.36 49.41 23.65 4.23 2.27-43.83-4.81-67.57-17.62-16.63-9-19.86-22.08-13.1-22.08s14.84 6.67 31.26 16.05z" stroke-linecap="round" stroke-linejoin="round" stroke-width="2" fill="#8fc7ff" stroke="#8fc7ff"/><path d="M235.72 266.78V283l-1.46 3.58H120a8.64 8.64 0 0 1-8.65-8.64 10.89 10.89 0 0 1 10.91-10.9 25.91 25.91 0 0 0 25.92-25.93v-11.78h65.48v11.81a25.93 25.93 0 0 0 22.06 25.64z" fill="url(#linear-gradient-2)"/><path class="cls-4" d="M235.72 194.71v34.62H80.65a34.06 34.06 0 0 1-34.06-34.06v-.56z"/><path class="cls-5" d="M315.23 72.42V146H246a10.23 10.23 0 0 0-10.23 10.23v38.53H46.59V72.42a34.06 34.06 0 0 1 34.06-34.06h200.52a34.06 34.06 0 0 1 34.06 34.06z"/><path class="cls-4" d="M453.65 266.67q-3.5.49-6.85 1.17c-2.26.43-4.48.93-6.64 1.48-2.57.66-5.07 1.39-7.48 2.18l20.83 11.5h3v-16.7c-.98.11-1.92.24-2.86.37zM456.47 156.18v95.67c-3.33.24-6.56.61-9.67 1.09v-96.77H245.38v113.15H380L377.88 283H235.72V156.18A10.23 10.23 0 0 1 246 146h200.24a10.23 10.23 0 0 1 10.23 10.18z"/><path class="cls-5" d="M446.8 156.17v96.77c-12.14 1.87-22.43 5.46-29.41 10.11l-4.51-2.51-29.78 3.53a2.11 2.11 0 0 0-1.38.16 2.17 2.17 0 0 0-1.24 1.65l-.52 3.44H245.38V156.17z"/><path d="M446.8 267.84v1.48h-6.64c2.16-.55 4.38-1.05 6.64-1.48z" fill="none" stroke="#000" stroke-linecap="round" stroke-linejoin="round" stroke-width="2"/><path d="M378.34 302.5a5.77 5.77 0 0 1-2.61-4.63H243.89a3 3 0 0 1-2.81-4l1.55-4.45a3 3 0 0 1 2.81-2h131.77l.67-4.44H235.69l-1.46 3.58-7.57 18.6a5.44 5.44 0 0 0 5 7.49h162.26zm-6.61 6.11h-51.31a2.81 2.81 0 0 1-2.51-4.08l.19-.37a5 5 0 0 1 4.41-2.71h47.13a5 5 0 0 1 4.41 2.71l.19.37a2.81 2.81 0 0 1-2.51 4.08z" fill="url(#linear-gradient-3)"/><path class="cls-8" d="M457.31 285.12l-3.8-2.09h2.95l.85 2.09zM377.21 287.47l-1.42 9.34a6.28 6.28 0 0 0-.06 1.06H243.89a3 3 0 0 1-2.81-4l1.55-4.45a3 3 0 0 1 2.81-2z"/><path d="M371.75 308.61h-51.31a2.81 2.81 0 0 1-2.51-4.08l.19-.37a5 5 0 0 1 4.41-2.71h47.13a5 5 0 0 1 4.41 2.71l.19.37a2.81 2.81 0 0 1-2.51 4.08z" fill="#fff"/><path d="M478 296.58l-15.67.86-21.44 1.17a3.8 3.8 0 0 0-.46-.74 4.13 4.13 0 0 0-1.23-1.08l-15.91-9.32-7.58-4.47-3.37-2-4.79-2.81-15.25-8.93-8.54-5a2 2 0 0 0-.66-.25l29.78-3.53 4.51 2.51 11.35 6.27 3.94 2.18L453.51 283l3.8 2.09z" fill="url(#linear-gradient-4)"/><path d="M478 296.58l-1 3.75-4.62 18-3.06 11.91-40.45 4.17a3.52 3.52 0 0 0 2.76-2.43l6.07-19.32 3.41-10.87a4.27 4.27 0 0 0-.26-3.22l21.44-1.17z" fill="url(#linear-gradient-5)"/><path class="cls-4" d="M441.15 301.83l-3.41 10.87-6.07 19.3a3.52 3.52 0 0 1-2.76 2.43l-.48.05H428a3.44 3.44 0 0 1-1.67-.57l-32.41-21.21-15.58-10.2a5.77 5.77 0 0 1-2.61-4.63 6.28 6.28 0 0 1 .06-1.06l1.42-9.34.67-4.44 2.12-13.71.52-3.44a2.17 2.17 0 0 1 1.24-1.65l1.38-.16a2 2 0 0 1 .66.25l8.54 5 15.25 8.93 4.79 2.81 3.37 2 7.58 4.44 15.91 9.32a4.13 4.13 0 0 1 1.23 1.08 3.8 3.8 0 0 1 .46.74 4.27 4.27 0 0 1 .22 3.19z"/><path class="cls-8" d="M521.13 274.2a34.78 34.78 0 0 1-4.13 14.33c-7.39 13.86-23.86 25.06-44.55 29.84l4.62-18c15.61-5.49 28.77-12.6 37.71-20a54.55 54.55 0 0 0 6.35-6.17z"/><path class="cls-8" d="M521.13 274.2a54.55 54.55 0 0 1-6.38 6.13c-7.2-11.3-30.95-17.3-58.28-14-.94.11-1.88.24-2.82.37q-3.5.49-6.85 1.17c-2.26.43-4.48.93-6.64 1.48-2.57.66-5.07 1.39-7.48 2.18l-3.94-2.18-11.35-6.27c7-4.65 17.27-8.24 29.41-10.11 3.11-.48 6.34-.85 9.67-1.09 3.68-.27 7.49-.39 11.38-.35 20.65.23 38.81 5.06 49.49 12.21a8.56 8.56 0 0 1 3.79 6.55v.05a31.56 31.56 0 0 1 0 3.86z"/></g></svg>