<svg xmlns="http://www.w3.org/2000/svg" xmlns:xlink="http://www.w3.org/1999/xlink" viewBox="0 0 573.78 471.61"><defs><style>.cls-4,.cls-9{stroke-linecap:round;stroke-linejoin:round}.cls-4{stroke-width:2px}.cls-4,.cls-9{fill:none}.cls-4{stroke:#000}.cls-8{fill:#364b60}.cls-9{stroke:#364b60;stroke-width:3px}</style><linearGradient id="linear-gradient" y1="235.81" x2="573.78" y2="235.81" gradientUnits="userSpaceOnUse"><stop offset=".48" stop-color="#8fc7ff"/><stop offset="1" stop-color="#8fabff"/></linearGradient><linearGradient id="linear-gradient-2" x1="53.14" y1="310.06" x2="124.93" y2="434.41" xlink:href="#linear-gradient"/><linearGradient id="linear-gradient-3" x1="162.59" y1="317.17" x2="336.6" y2="317.17" gradientUnits="userSpaceOnUse"><stop offset="0" stop-color="#8fc7ff"/><stop offset=".25" stop-color="#6790b8"/><stop offset=".56" stop-color="#445e78"/><stop offset=".82" stop-color="#364b60"/></linearGradient></defs><g id="Layer_4" data-name="Layer 4"><path d="M572.69 286.64c-7.56 65.24-87.58 185-231.42 185S0 220.29 0 76.45 125.05 35.9 268.89 35.9s320.37 107.85 303.8 250.74z" fill="url(#linear-gradient)"/><path d="M330.27 28.3c0 7.46-28.08 0-60.82 0S192.59 15.49 192.59 8s22.68-.85 55.42-.85 82.26 13.68 82.26 21.15z" stroke-width="2" stroke-linecap="round" stroke-linejoin="round" fill="#8fc7ff" stroke="#8fc7ff"/><path d="M141.91 393.2c0 31.72-32.63 54.9-47.17 54.9s-26.32-25.71-26.32-57.43-14.54-88.7 0-88.7 73.49 59.51 73.49 91.23z" fill="url(#linear-gradient-2)"/><path class="cls-4" d="M241.8 147.23c0 .57-.84 1-1.87 1s-1.87-.47-1.87-1zM246.84 152c0 .57-.83 1-1.87 1s-1.86-.46-1.86-1a.55.55 0 0 1 .07-.28 2.5 2.5 0 0 1 3.59 0 .55.55 0 0 1 .07.28zM251.75 147.23c0 .57-.84 1-1.87 1s-1.87-.47-1.87-1zM256.09 152c0 .57-.84 1-1.87 1s-1.87-.46-1.87-1a.55.55 0 0 1 .07-.28 2 2 0 0 1 1.8-.76 2 2 0 0 1 1.8.76.68.68 0 0 1 .07.28zM261.29 172.85c0 3.58-5.23 6.48-11.69 6.48s-11.7-2.9-11.7-6.48a3.79 3.79 0 0 1 .44-1.76c1.38-2.72 5.9-4.71 11.26-4.71s9.87 2 11.26 4.71a3.91 3.91 0 0 1 .43 1.76zM261.13 147.23c0 .57-.84 1-1.87 1s-1.87-.47-1.87-1z"/><path d="M336.6 163.72v259.75c0 26.59-39 48.14-87 48.14s-87-21.55-87-48.14V162.72c11.65 19.51 46.2 38.65 87 38.65s75.4-18.14 87-37.65z" fill="url(#linear-gradient-3)"/><path class="cls-4" d="M261.06 146.94a2 2 0 0 0-1.8-.75 2.07 2.07 0 0 0-1.8.75.68.68 0 0 0-.07.28c0 .57.84 1 1.87 1s1.87-.47 1.87-1a.55.55 0 0 0-.07-.28zm-.2-27.1c-1.39-2.72-5.91-4.71-11.26-4.71s-9.88 2-11.26 4.71a3.79 3.79 0 0 0-.44 1.76c0 3.58 5.24 6.47 11.7 6.47s11.69-2.89 11.69-6.47a3.91 3.91 0 0 0-.43-1.76zm0 51.24c-1.39-2.72-5.91-4.71-11.26-4.71s-9.88 2-11.26 4.71a3.79 3.79 0 0 0-.44 1.76c0 3.58 5.24 6.48 11.7 6.48s11.69-2.9 11.69-6.48a3.91 3.91 0 0 0-.43-1.76zM256 142.15a2.07 2.07 0 0 0-1.8-.75 2 2 0 0 0-1.8.75.58.58 0 0 0-.07.28c0 .58.84 1 1.87 1s1.87-.46 1.87-1a.72.72 0 0 0-.07-.28zm0 9.58a2 2 0 0 0-1.8-.76 2 2 0 0 0-1.8.76.55.55 0 0 0-.07.28c0 .57.84 1 1.87 1s1.87-.46 1.87-1a.68.68 0 0 0-.07-.28zm-4.34-4.79a2.07 2.07 0 0 0-1.8-.75 2 2 0 0 0-1.8.75.55.55 0 0 0-.07.28c0 .57.84 1 1.87 1s1.87-.47 1.87-1a.68.68 0 0 0-.05-.28zm-4.91-4.79a2.52 2.52 0 0 0-3.59 0 .58.58 0 0 0-.07.28c0 .58.83 1 1.86 1s1.87-.46 1.87-1a.58.58 0 0 0-.05-.28zm0 9.58a2.5 2.5 0 0 0-3.59 0 .55.55 0 0 0-.07.28c0 .57.83 1 1.86 1s1.87-.46 1.87-1a.55.55 0 0 0-.05-.28zm-5-4.79a2.54 2.54 0 0 0-3.6 0 .55.55 0 0 0-.07.28c0 .57.84 1 1.87 1s1.87-.47 1.87-1a.68.68 0 0 0-.09-.28z"/><path d="M336.6 147.22v17.91a8.54 8.54 0 0 1-1.52 4.92c-12.92 18.3-46.32 31.32-85.48 31.32-37.56 0-69.82-12-83.8-29.09a14.53 14.53 0 0 1-3.21-9.19v-15.87c0 26.6 39 48.15 87 48.15s87.01-21.55 87.01-48.15z" fill="#202020"/><path class="cls-4" d="M241.73 147a2.54 2.54 0 0 0-3.6 0 .55.55 0 0 0-.07.28c0 .57.84 1 1.87 1s1.87-.47 1.87-1a.68.68 0 0 0-.07-.28zm5 4.79a2.5 2.5 0 0 0-3.59 0 .55.55 0 0 0-.07.28c0 .57.83 1 1.86 1s1.87-.46 1.87-1a.55.55 0 0 0-.03-.33zm0-9.58a2.52 2.52 0 0 0-3.59 0 .58.58 0 0 0-.07.28c0 .58.83 1 1.86 1s1.87-.46 1.87-1a.58.58 0 0 0-.03-.33zm4.91 4.79a2.07 2.07 0 0 0-1.8-.75 2 2 0 0 0-1.8.75.55.55 0 0 0-.07.28c0 .57.84 1 1.87 1s1.87-.47 1.87-1a.68.68 0 0 0-.03-.28zm4.34 4.79a2 2 0 0 0-1.8-.76 2 2 0 0 0-1.8.76.55.55 0 0 0-.07.28c0 .57.84 1 1.87 1s1.87-.46 1.87-1a.68.68 0 0 0-.05-.33zm0-9.58a2.07 2.07 0 0 0-1.8-.75 2 2 0 0 0-1.8.75.58.58 0 0 0-.07.28c0 .58.84 1 1.87 1s1.87-.46 1.87-1a.72.72 0 0 0-.05-.33zm4.84 28.93c-1.39-2.72-5.91-4.71-11.26-4.71s-9.88 2-11.26 4.71a3.79 3.79 0 0 0-.44 1.76c0 3.58 5.24 6.48 11.7 6.48s11.69-2.9 11.69-6.48a3.91 3.91 0 0 0-.39-1.81zm0-51.24c-1.39-2.72-5.91-4.71-11.26-4.71s-9.88 2-11.26 4.71a3.79 3.79 0 0 0-.44 1.76c0 3.58 5.24 6.47 11.7 6.47s11.69-2.89 11.69-6.47a3.91 3.91 0 0 0-.39-1.81zm.2 27.1a2 2 0 0 0-1.8-.75 2.07 2.07 0 0 0-1.8.75.68.68 0 0 0-.07.28c0 .57.84 1 1.87 1s1.87-.47 1.87-1a.55.55 0 0 0-.03-.28z"/><path d="M333.34 134.12c-10.31-20.22-43.9-35-83.74-35s-73.44 14.82-83.75 35a28.67 28.67 0 0 0-3.26 13.1c0 26.6 39 48.15 87 48.15s87-21.55 87-48.15a28.67 28.67 0 0 0-3.25-13.1zM199.76 153.7c-6.46 0-11.7-2.9-11.7-6.48a3.79 3.79 0 0 1 .44-1.76c1.39-2.72 5.9-4.71 11.26-4.71s9.87 2 11.26 4.71a3.79 3.79 0 0 1 .44 1.76c0 3.58-5.24 6.48-11.7 6.48zm49.84 25.62c-6.46 0-11.7-2.9-11.7-6.48a3.79 3.79 0 0 1 .44-1.76c1.38-2.72 5.9-4.71 11.26-4.71s9.87 2 11.26 4.71a3.91 3.91 0 0 1 .43 1.76c0 3.58-5.23 6.48-11.69 6.48zm-11.54-32.1a.55.55 0 0 1 .07-.28 2.54 2.54 0 0 1 3.6 0 .68.68 0 0 1 .07.28c0 .57-.84 1-1.87 1s-1.87-.43-1.87-1zm5.12 4.51a2.5 2.5 0 0 1 3.59 0 .55.55 0 0 1 .07.28c0 .57-.83 1-1.87 1s-1.86-.46-1.86-1a.55.55 0 0 1 .07-.28zm-.07-9.3a.58.58 0 0 1 .07-.28 2.52 2.52 0 0 1 3.59 0 .58.58 0 0 1 .07.28c0 .58-.83 1-1.87 1s-1.86-.43-1.86-1zm4.9 4.79a.55.55 0 0 1 .07-.28 2 2 0 0 1 1.8-.75 2.07 2.07 0 0 1 1.8.75.68.68 0 0 1 .07.28c0 .57-.84 1-1.87 1s-1.88-.43-1.88-1zm4.41 4.51a2 2 0 0 1 1.8-.76 2 2 0 0 1 1.8.76.68.68 0 0 1 .07.28c0 .57-.84 1-1.87 1s-1.87-.46-1.87-1a.55.55 0 0 1 .07-.28zm-.07-9.3a.58.58 0 0 1 .07-.28 2 2 0 0 1 1.8-.75 2.07 2.07 0 0 1 1.8.75.72.72 0 0 1 .07.28c0 .58-.84 1-1.87 1s-1.87-.43-1.87-1zm5 4.79a.68.68 0 0 1 .07-.28 2.07 2.07 0 0 1 1.8-.75 2 2 0 0 1 1.8.75.55.55 0 0 1 .07.28c0 .57-.84 1-1.87 1s-1.83-.43-1.83-1zm-7.79-19.15c-6.46 0-11.7-2.89-11.7-6.47a3.79 3.79 0 0 1 .44-1.76c1.38-2.72 5.9-4.71 11.26-4.71s9.87 2 11.26 4.71a3.91 3.91 0 0 1 .43 1.76c.04 3.58-5.19 6.47-11.65 6.47zm49.83 25.63c-6.46 0-11.7-2.9-11.7-6.48a3.92 3.92 0 0 1 .44-1.76c1.39-2.72 5.91-4.71 11.26-4.71s9.88 2 11.26 4.71a3.79 3.79 0 0 1 .44 1.76c.04 3.58-5.2 6.48-11.66 6.48z" fill="#fff" stroke="#fff" stroke-miterlimit="10"/><path class="cls-8" d="M211.46 147.23c0 3.58-5.24 6.48-11.7 6.48s-11.7-2.9-11.7-6.48a3.79 3.79 0 0 1 .44-1.76c1.39-2.72 5.9-4.71 11.26-4.71s9.87 2 11.26 4.71a3.79 3.79 0 0 1 .44 1.76zM311.13 147.23c0 3.58-5.24 6.48-11.7 6.48s-11.7-2.9-11.7-6.48a3.92 3.92 0 0 1 .44-1.76c1.39-2.72 5.91-4.71 11.26-4.71s9.88 2 11.26 4.71a3.79 3.79 0 0 1 .44 1.76zM261.29 121.61c0 3.58-5.23 6.47-11.69 6.47s-11.7-2.89-11.7-6.47a3.79 3.79 0 0 1 .44-1.76c1.38-2.72 5.9-4.71 11.26-4.71s9.87 2 11.26 4.71a3.91 3.91 0 0 1 .43 1.76zM261.29 172.85c0 3.58-5.23 6.48-11.69 6.48s-11.7-2.9-11.7-6.48a3.79 3.79 0 0 1 .44-1.76c1.38-2.72 5.9-4.71 11.26-4.71s9.87 2 11.26 4.71a3.91 3.91 0 0 1 .43 1.76zM246.84 142.44c0 .58-.83 1-1.87 1s-1.86-.46-1.86-1a.58.58 0 0 1 .07-.28 2.52 2.52 0 0 1 3.59 0 .58.58 0 0 1 .07.28zM256.09 142.44c0 .58-.84 1-1.87 1s-1.87-.46-1.87-1a.58.58 0 0 1 .07-.28 2 2 0 0 1 1.8-.75 2.07 2.07 0 0 1 1.8.75.72.72 0 0 1 .07.28zM251.75 147.23c0 .57-.84 1-1.87 1s-1.87-.47-1.87-1a.55.55 0 0 1 .07-.28 2 2 0 0 1 1.8-.75 2.07 2.07 0 0 1 1.8.75.68.68 0 0 1 .07.28zM241.8 147.23c0 .57-.84 1-1.87 1s-1.87-.47-1.87-1a.55.55 0 0 1 .07-.28 2.54 2.54 0 0 1 3.6 0 .68.68 0 0 1 .07.28zM261.13 147.23c0 .57-.84 1-1.87 1s-1.87-.47-1.87-1a.68.68 0 0 1 .07-.28 2.07 2.07 0 0 1 1.8-.75 2 2 0 0 1 1.8.75.55.55 0 0 1 .07.28zM246.84 152c0 .57-.83 1-1.87 1s-1.86-.46-1.86-1a.55.55 0 0 1 .07-.28 2.5 2.5 0 0 1 3.59 0 .55.55 0 0 1 .07.28zM256.09 152c0 .57-.84 1-1.87 1s-1.87-.46-1.87-1a.55.55 0 0 1 .07-.28 2 2 0 0 1 1.8-.76 2 2 0 0 1 1.8.76.68.68 0 0 1 .07.28z"/><path class="cls-9" d="M128 381.27c-13.88-15.95-22.65-39.38-22.65-65.49 0-31.31 12.6-58.75 31.51-74.07M98.13 368.07C86.88 355.14 79.77 336.14 79.77 315c0-25.39 10.21-47.64 25.54-60.06M371.23 381.27c13.88-15.95 22.65-39.38 22.65-65.49 0-31.31-12.6-58.75-31.51-74.07M401.06 368.07c11.25-12.93 18.36-31.93 18.36-53.1 0-25.39-10.21-47.64-25.54-60.06"/></g></svg>