<svg width="359" height="444" xmlns="http://www.w3.org/2000/svg"><g fill="none" fill-rule="evenodd"><path d="M112.13 104.25L75.66 92.82l-1.45-5L68 52.12l29.81-14.41.11.41-3.35 8.67a28.09 28.09 0 0 0 .8 22.21l16.76 35.25z" fill="#202020"/><path d="M74.41 124.18L65 148.35a1.85 1.85 0 0 1-2.19 1.12l-34-8.92a1.86 1.86 0 0 1-1.36-2.06l7.79-52.72A54.62 54.62 0 0 1 43.4 64.1l18.4-28.5a1.84 1.84 0 0 1 3.37.68L68 52.12l6.24 35.65 2.44 14a41.84 41.84 0 0 1-2.27 22.41z" fill="#364B60"/><path d="M63.92 199.72l-10.58 13.82a51.52 51.52 0 0 0-10.2 24.87l-3.89 30.86h-30l-8.9-79.82a28.48 28.48 0 0 1 5.34-20l21.58-29.34 1.6.42 34 8.92 1.59.42 3.18 37.35a18 18 0 0 1-3.72 12.5zM39.25 294.18v22.4a3.61 3.61 0 0 0 4.06 3.58l7.61-1a2.77 2.77 0 0 1 2.66 4.27l-5.2 7.9A9.86 9.86 0 0 1 44 335l-7 3.06a12.35 12.35 0 0 1-12.51-1.62l-6.3-4.95a23.44 23.44 0 0 1-9-18.42v-43.8h30l4.5 1c14.253 3.148 24.401 15.783 24.4 30.38v4.3a3.06 3.06 0 0 1-5.72 1.51l-5.16-9.12a19 19 0 0 0-10.42-8.6 5.76 5.76 0 0 0-7.54 5.44z" fill="#364B60"/><path d="M147.84 213.56l-9.71 4.5-13.39-51.58 13.6-1.6c.17.73.32 1.46.46 2.2l9.04 46.48z" fill="#202020"/><path d="M141.41 240l-4.93 46.88H94.24l-10.5-48.45a33 33 0 0 1 .7-16.68l27-87.91a2.52 2.52 0 0 1 4.84.11l8.44 32.5 13.39 51.58 2.31 8.92a36.79 36.79 0 0 1 .99 13.05zM148.45 330.53l-14.69 54.93H94.24L81.4 328.68a33.72 33.72 0 0 1 3-23.1l9.8-18.67h42.24l9.77 20.27a33.65 33.65 0 0 1 2.24 23.35z" fill="#364B60"/><path d="M150.37 436.37l-24.74 5.1a80.63 80.63 0 0 1-35.58-.69l-14.5-3.57a6.28 6.28 0 0 1-2.8-10.66l3.32-3.13A45.94 45.94 0 0 0 88.29 404l6-18.58h39.51l4.82 17.22a45.92 45.92 0 0 0 13.2 21.48l1.56 1.44a6.28 6.28 0 0 1-3.01 10.81z" fill="#364B60"/><path d="M290.25 52.12L284 87.7l-1.47 5.08-37 11.59 17.3-36.54a28.07 28.07 0 0 0 1.34-20.65l-2.94-9.11 29.02 14.05z" fill="#202020"/><path d="M329.38 140.55l-33.95 8.92a1.84 1.84 0 0 1-2.19-1.12l-9.44-24.17a41.84 41.84 0 0 1-2.23-22.42l2.45-14 6.22-35.58 2.76-15.9a1.85 1.85 0 0 1 3.38-.68l18.4 28.5A54.75 54.75 0 0 1 323 85.77l7.79 52.72a1.85 1.85 0 0 1-1.41 2.06z" fill="#364B60"/><path d="M357.91 189.45L349 269.27h-30l-3.89-30.86a51.52 51.52 0 0 0-10.2-24.87l-10.61-13.82a18 18 0 0 1-3.65-12.48l3.19-37.35 1.59-.42 33.95-8.92 1.6-.42 21.58 29.34a28.43 28.43 0 0 1 5.35 19.98z" fill="#364B60"/><path d="M319 294.18v22.4a3.61 3.61 0 0 1-4.06 3.58l-7.61-1a2.77 2.77 0 0 0-2.66 4.27l5.2 7.9a9.86 9.86 0 0 0 4.34 3.64l7.07 3.05a12.34 12.34 0 0 0 12.5-1.62l6.3-4.95a23.41 23.41 0 0 0 9-18.42v-43.8H319l-4.5 1c-14.253 3.148-24.401 15.783-24.4 30.38v4.3a3.06 3.06 0 0 0 5.73 1.51l5.16-9.12a18.91 18.91 0 0 1 10.41-8.6 5.76 5.76 0 0 1 7.6 5.48z" fill="#364B60"/><path d="M233.48 166.48l-13.39 51.58-10.19-4.73 9-46c.17-.84.34-1.68.53-2.51l14.05 1.66z" fill="#202020"/><path d="M274.48 238.46L264 286.91h-42.26L216.8 240a36.57 36.57 0 0 1 1-13.05l2.31-8.92 13.39-51.58 8.43-32.5a2.52 2.52 0 0 1 4.84-.11l27 87.91a33 33 0 0 1 .71 16.71z" fill="#364B60"/><path d="M276.81 328.68L264 385.46h-39.54l-14.7-54.93a33.76 33.76 0 0 1 2.2-23.35l9.78-20.27H264l9.81 18.67a33.71 33.71 0 0 1 3 23.1z" fill="#364B60"/><path d="M207.85 436.37l24.74 5.1a80.63 80.63 0 0 0 35.58-.69l14.5-3.57a6.28 6.28 0 0 0 2.8-10.66l-3.32-3.13A45.82 45.82 0 0 1 269.94 404l-6-18.58h-39.48l-4.82 17.22a46 46 0 0 1-13.19 21.48l-1.57 1.44a6.28 6.28 0 0 0 2.97 10.81zM159.13 223.37h-9.38l-1.91-9.81-9-46.48c-.14-.74-.29-1.47-.46-2.2a90.38 90.38 0 0 0-6.66-19.46l-19.55-41.17L95.37 69a28.09 28.09 0 0 1-.84-22.18l3.35-8.67L105 19.64a15.28 15.28 0 0 1 14.41-9.77l17.95.19 17.55 53.05a34.46 34.46 0 0 1 .78 18.89l-3.34 13.76a151.33 151.33 0 0 0-2.9 56l9.68 71.61zM262.87 67.87l-17.3 36.54-19.63 41.48a91.22 91.22 0 0 0-6.52 18.94c-.19.83-.36 1.67-.53 2.51l-9 46-2 10h-9.76l6.72-76a151.24 151.24 0 0 0-2.31-42.83l-4.25-21.38a34.43 34.43 0 0 1 2-20L222.21 11l19.41.2A15.28 15.28 0 0 1 256 21.73l5.28 16.38 2.94 9.11a28.07 28.07 0 0 1-1.35 20.65z" fill="#364B60"/><path d="M200.35 63.15a34.43 34.43 0 0 0-2 20l4.25 21.38a151.24 151.24 0 0 1 2.31 42.83l-6.72 76-9.3 3.75a28.44 28.44 0 0 1-22.17-.38l-7.58-3.37-9.68-71.58a151.33 151.33 0 0 1 2.9-56L155.69 82a34.46 34.46 0 0 0-.77-18.91l-17.55-53 5-4.59A20.82 20.82 0 0 1 156.44 0h47a20.83 20.83 0 0 1 16.34 7.92l2.39 3-21.82 52.23z" fill="#8FC7FF"/></g></svg>